<?xml version="1.0" encoding="UTF-8" standalone="no"?>
<!-- Created with Inkscape (http://www.inkscape.org/) -->

<svg
   xmlns:dc="http://purl.org/dc/elements/1.1/"
   xmlns:cc="http://creativecommons.org/ns#"
   xmlns:rdf="http://www.w3.org/1999/02/22-rdf-syntax-ns#"
   xmlns:svg="http://www.w3.org/2000/svg"
   xmlns="http://www.w3.org/2000/svg"
   version="1.1"
   width="93.639"
   height="54.345001"
   viewBox="0 0 93.639 54.345001"
   id="Layer_10"
   xml:space="preserve"><metadata
     id="metadata9"><rdf:RDF><cc:Work
         rdf:about=""><dc:format>image/svg+xml</dc:format><dc:type
           rdf:resource="http://purl.org/dc/dcmitype/StillImage" /><dc:title></dc:title></cc:Work></rdf:RDF></metadata><defs
     id="defs7" /><path
     d="M 88.367,21.47 76.103,17.234 68.999,5.171 C 66.62,1.423 65.001,0.2 57.87,0.2 H 5.173 C 2.427,0.2 0.2,2.427 0.2,5.171 v 26.443 4.734 2.605 c 0,2.746 2.227,4.973 4.973,4.973 h 2.639 c 0.328,-5.459 4.846,-9.789 10.387,-9.789 5.541,0 10.059,4.33 10.387,9.789 h 35.736 c 0.197,-3.223 1.877,-6.311 4.813,-8.17 4.861,-3.08 11.297,-1.637 14.377,3.223 0.977,1.543 1.496,3.244 1.598,4.947 h 3.258 c 2.746,0 4.971,-2.227 4.971,-4.973 V 26.443 C 93.338,23.696 91.302,22.437 88.367,21.47 z M 69.705,18.589 H 47.043 c -0.34,0 -0.613,-0.273 -0.613,-0.611 V 5.944 c 0,-0.338 0.273,-0.611 0.613,-0.611 h 16.23 c 0.336,0 0.836,0.125 1.084,0.611 l 5.959,12.033 c 0,0.339 -0.273,0.612 -0.611,0.612 z m 22.759,15.367 c 0,0.918 -0.744,1.662 -1.662,1.662 h -5.125 c -0.918,0 -1.662,-0.744 -1.662,-1.662 v -3.74 c 0,-0.918 0.744,-1.662 1.662,-1.662 h 5.125 c 0.918,0 1.662,0.744 1.662,1.662 v 3.74 z m -74.39,1.289 c -5.211,0 -9.451,4.24 -9.451,9.451 0,5.211 4.24,9.449 9.451,9.449 5.211,0 9.449,-4.238 9.449,-9.449 0,-5.211 -4.238,-9.451 -9.449,-9.451 z m 0,15.901 c -3.559,0 -6.451,-2.893 -6.451,-6.449 0,-3.556 2.893,-6.451 6.451,-6.451 3.557,0 6.449,2.895 6.449,6.451 0,3.556 -2.892,6.449 -6.449,6.449 z M 74.752,35.245 c -5.211,0 -9.451,4.24 -9.451,9.451 0,5.211 4.24,9.449 9.451,9.449 5.211,0 9.451,-4.238 9.451,-9.449 0,-5.211 -4.24,-9.451 -9.451,-9.451 z m 0,15.901 c -3.557,0 -6.451,-2.893 -6.451,-6.449 0,-3.556 2.895,-6.451 6.451,-6.451 3.559,0 6.451,2.895 6.451,6.451 0,3.556 -2.893,6.449 -6.451,6.449 z"
     id="path3" /></svg>