<?xml version="1.0" encoding="UTF-8" standalone="no"?>
<!-- Created with Inkscape (http://www.inkscape.org/) -->

<svg
   xmlns:dc="http://purl.org/dc/elements/1.1/"
   xmlns:cc="http://creativecommons.org/ns#"
   xmlns:rdf="http://www.w3.org/1999/02/22-rdf-syntax-ns#"
   xmlns:svg="http://www.w3.org/2000/svg"
   xmlns="http://www.w3.org/2000/svg"
   version="1.1"
   width="93.666"
   height="52.5"
   viewBox="0 0 93.666 52.5"
   id="Layer_10"
   xml:space="preserve"><metadata
     id="metadata9"><rdf:RDF><cc:Work
         rdf:about=""><dc:format>image/svg+xml</dc:format><dc:type
           rdf:resource="http://purl.org/dc/dcmitype/StillImage" /><dc:title></dc:title></cc:Work></rdf:RDF></metadata><defs
     id="defs7" /><path
     d="M 7.3009996,36.504 H 62.198 v 7.594 H 23.044 22.259 c -1.191,-3.271 -4.331,-5.615 -8.01,-5.615 -3.624,0 -6.7250004,2.275 -7.9560004,5.471 -1.517,-0.438 -2.627,-1.833 -2.627,-3.491 V 40.14 c 0,-2.009 1.627,-3.636 3.635,-3.636 z M 20.309,46.158 c 0,3.497 -2.845,6.342 -6.343,6.342 -3.496,0 -6.3420004,-2.845 -6.3420004,-6.342 0,-3.497 2.8460004,-6.343 6.3420004,-6.343 3.498,0 6.343,2.846 6.343,6.343 z m -1.94,0 c 0,-2.428 -1.975,-4.403 -4.403,-4.403 -2.428,0 -4.4020004,1.976 -4.4020004,4.403 0,2.427 1.9750004,4.402 4.4020004,4.402 2.429,10e-4 4.403,-1.974 4.403,-4.402 z m 66.047,0 c 0,3.497 -2.846,6.342 -6.343,6.342 -3.497,0 -6.342,-2.845 -6.342,-6.342 0,-3.497 2.845,-6.343 6.342,-6.343 3.497,0 6.343,2.846 6.343,6.343 z m -1.939,0 c 0,-2.428 -1.976,-4.403 -4.403,-4.403 -2.427,0 -4.402,1.976 -4.402,4.403 0,2.427 1.975,4.402 4.402,4.402 2.427,0 4.403,-1.974 4.403,-4.402 z M 93.666,27.94 v 14.34 c 0,0.669 -0.543,1.212 -1.212,1.212 h -6.336 c -1.342,-2.951 -4.314,-5.01 -7.762,-5.01 -3.448,0 -6.421,2.059 -7.763,5.01 h -4.275 c -0.669,0 -1.212,-0.543 -1.212,-1.212 V 13.479 c 0,-0.67 0.543,-1.212 1.212,-1.212 h 15.956 c 0.669,0 1.687,0.223 2.424,1.212 L 93.666,27.94 z M 88.011,24.789 82.558,15.74 C 82.137,14.961 81.619,14.529 79.77,14.529 h -9.897 c -0.669,0 -1.212,0.542 -1.212,1.211 v 9.049 c 0,0.67 0.543,1.212 1.212,1.212 h 16.926 c 0.669,0 1.212,-0.542 1.212,-1.212 z m 4.725,13.774 c 0,-0.624 -0.506,-1.131 -1.131,-1.131 -0.624,0 -1.131,0.507 -1.131,1.131 v 2.142 c 0,0.625 0.507,1.131 1.131,1.131 0.625,0 1.131,-0.506 1.131,-1.131 V 38.563 z M -3.6758249e-7,34.334 H 62.198 V 0 H -3.6758249e-7 v 34.334 z"
     id="path3" /></svg>