<?xml version="1.0" encoding="UTF-8" standalone="no"?>
<!-- Created with Inkscape (http://www.inkscape.org/) -->

<svg
   xmlns:dc="http://purl.org/dc/elements/1.1/"
   xmlns:cc="http://creativecommons.org/ns#"
   xmlns:rdf="http://www.w3.org/1999/02/22-rdf-syntax-ns#"
   xmlns:svg="http://www.w3.org/2000/svg"
   xmlns="http://www.w3.org/2000/svg"
   version="1.1"
   width="42.153999"
   height="22.924"
   viewBox="0 0 42.153998 22.924"
   id="Capa_1"
   xml:space="preserve"><metadata
     id="metadata9"><rdf:RDF><cc:Work
         rdf:about=""><dc:format>image/svg+xml</dc:format><dc:type
           rdf:resource="http://purl.org/dc/dcmitype/StillImage" /><dc:title></dc:title></cc:Work></rdf:RDF></metadata><defs
     id="defs7" /><path
     d="m 9.3829994,15.387 c 1.9519996,0 3.5389996,1.584 3.5389996,3.539 0,1.953 -1.587,3.537 -3.5389996,3.537 -1.953,0 -3.535,-1.584 -3.535,-3.537 0,-1.953 1.582,-3.539 3.535,-3.539 z m 0,5.093 c 0.8559996,0 1.5529996,-0.697 1.5529996,-1.554 0,-0.854 -0.696,-1.551 -1.5529996,-1.551 -0.854,0 -1.552,0.694 -1.552,1.551 0,0.854 0.698,1.554 1.552,1.554 z m 30.6289996,-2.843 0,0 0,0 0,0 z m 1.942,0 h -1.942 c 0.056,0.25 0.091,0.509 0.091,0.771 0,0.222 -0.025,0.437 -0.065,0.647 h 1.916 v -1.418 z m -11.518,-0.002 h -1.479 v 0.002 1.418 h 1.461 c -0.028,-0.213 -0.049,-0.428 -0.049,-0.647 0,-0.264 0.026,-0.521 0.067,-0.773 z m -16.726,0.77 c 0.033,0.215 0.054,0.428 0.054,0.648 0,0.133 -0.006,0.26 -0.019,0.391 h 14.818 v -1.039 h -14.853 z m 14.555,-18.205 0.001,3.483 c 0.103,0 0.197,0 0.297,0 v 13.464 0.963 h -14.903 c -0.434,-1.986 -2.207,-3.482 -4.3239996,-3.482 -1.94,0 -3.592,1.26 -4.188,3.002 l -0.174,0.111 h -3.637 v -3.98 H 0.19999935 V 0.2 H 28.264999 z M 2.3349994,15.962 h 0.552 v -2.203 h -0.552 v 2.203 z m 2.593,2.073 H 0.94299935 v 1.038 H 4.8909994 c -0.01,-0.129 -0.019,-0.258 -0.019,-0.391 0,-0.22 0.02,-0.433 0.056,-0.647 z m 36.8969996,-7.97 v 1.552 5.632 h -10e-4 -2.157 c -0.52,-2.046 -2.372,-3.562 -4.574,-3.562 -2.206,0 -4.059,1.519 -4.574,3.562 h -1.588 V 3.659 h 9.97 l 2.924,6.406 z m -11.805,-5.373 v 3.366 h 3.849 l 2.848,2.395 h 3.805 l -2.125,-5.761 h -8.377 z m 5.059,10.439 c 2.097,0 3.795,1.699 3.795,3.795 0,2.099 -1.697,3.798 -3.795,3.798 -2.096,0 -3.796,-1.699 -3.796,-3.798 0.002,-2.097 1.702,-3.795 3.796,-3.795 z m 10e-4,5.459 c 0.917,0 1.665,-0.748 1.665,-1.664 0,-0.918 -0.747,-1.664 -1.665,-1.664 -0.92,0 -1.665,0.746 -1.665,1.664 0,0.918 0.746,1.664 1.665,1.664 z"
     id="path3" /></svg>