<?xml version="1.0" encoding="UTF-8" standalone="no"?>
<!-- Created with Inkscape (http://www.inkscape.org/) -->

<svg
   xmlns:dc="http://purl.org/dc/elements/1.1/"
   xmlns:cc="http://creativecommons.org/ns#"
   xmlns:rdf="http://www.w3.org/1999/02/22-rdf-syntax-ns#"
   xmlns:svg="http://www.w3.org/2000/svg"
   xmlns="http://www.w3.org/2000/svg"
   version="1.1"
   width="52.805"
   height="18.400999"
   viewBox="0 0 52.805 18.400999"
   id="Capa_1"
   xml:space="preserve"><metadata
     id="metadata3102"><rdf:RDF><cc:Work
         rdf:about=""><dc:format>image/svg+xml</dc:format><dc:type
           rdf:resource="http://purl.org/dc/dcmitype/StillImage" /><dc:title></dc:title></cc:Work></rdf:RDF></metadata><defs
     id="defs3100" /><path
     d="m 7.1419995,12.634 c 1.484,0 2.689,1.201 2.689,2.686 0,1.486 -1.205,2.689 -2.689,2.689 -1.479,0 -2.688,-1.203 -2.688,-2.689 0,-1.483 1.205,-2.686 2.688,-2.686 z m 0.002,3.863 c 0.65,0 1.182,-0.527 1.182,-1.18 0,-0.646 -0.527,-1.178 -1.182,-1.178 -0.646,0 -1.18,0.527 -1.18,1.178 0,0.653 0.529,1.18 1.18,1.18 z m 6.2729995,-3.863 c 1.48,0 2.686,1.201 2.686,2.686 0,1.486 -1.203,2.689 -2.686,2.689 -1.484,0 -2.689,-1.203 -2.689,-2.689 0.002,-1.483 1.205,-2.686 2.689,-2.686 z m 0,3.863 c 0.646,0 1.178,-0.527 1.178,-1.18 0,-0.646 -0.529,-1.178 -1.178,-1.178 -0.652,0 -1.178,0.527 -1.178,1.178 0,0.653 0.528,1.18 1.178,1.18 z m 6.358,-3.863 c 1.484,0 2.689,1.201 2.689,2.686 0,1.486 -1.203,2.689 -2.689,2.689 -1.479,0 -2.686,-1.203 -2.686,-2.689 0,-1.483 1.203,-2.686 2.686,-2.686 z m 0,3.863 c 0.65,0 1.186,-0.527 1.186,-1.18 0,-0.646 -0.529,-1.178 -1.186,-1.178 -0.646,0 -1.178,0.527 -1.178,1.178 0,0.653 0.527,1.18 1.178,1.18 z m 27.26,-13.359 c 0,0 -1.601,-1.452 -4.501,-2.759 v 2.759 h 4.501 z m -4.82,-2.938 v 3.546 c 0.078,0 0.15,0 0.225,0 v 10.224 0.729 h -19.417 c -0.33,-1.51 -1.676,-2.645 -3.277,-2.645 -1.48,0 -2.73,0.955 -3.186,2.279 -0.451,-1.322 -1.703,-2.279 -3.178,-2.279 -1.432,0 -2.652,0.898 -3.139,2.164 -0.4839995,-1.266 -1.7029995,-2.164 -3.1389995,-2.164 -1.604,0 -2.955,1.135 -3.281,2.645 h -2.764 V 11.394 H 0.19999949 V 0.2 H 42.214999 z M 1.8209995,13.068 h 0.418 v -1.672 h -0.418 v 1.672 z m 49.3119995,1.275 c 0.041,0.188 0.067,0.385 0.067,0.584 0,0.168 -0.021,0.33 -0.055,0.49 h 1.46 v -1.074 h -1.472 z m -7.268,0 h -1.124 v 1.072 h 1.107 c -0.021,-0.158 -0.039,-0.322 -0.039,-0.488 10e-4,-0.201 0.025,-0.397 0.056,-0.584 z m -20.801,0.584 c 0.021,0.16 0.037,0.324 0.037,0.49 0,0.102 -0.008,0.197 -0.014,0.299 h 19.351 v -0.789 h -19.374 l 0,0 z m -19.2799995,0 H 0.76299949 v 0.787 H 3.7609995 c -0.008,-0.1 -0.016,-0.197 -0.016,-0.297 0,-0.166 0.016,-0.33 0.039,-0.49 z M 52.507999,8.592 v 1.18 l 0.001,4.273 h -1.636 c -0.396,-1.553 -1.8,-2.705 -3.477,-2.705 -1.673,0 -3.074,1.148 -3.473,2.705 h -1.205 V 3.73 h 7.57 l 2.22,4.862 z m -8.961,-4.078 v 2.555 h 2.921 l 2.161,1.817 h 2.888 l -1.606,-4.372 h -6.364 z m 3.839,7.925 c 1.592,-0.002 2.883,1.289 2.883,2.881 0,1.592 -1.291,2.881 -2.883,2.881 -1.59,0 -2.881,-1.287 -2.881,-2.881 0.002,-1.592 1.293,-2.881 2.881,-2.881 z m 0,4.144 c 0.699,0 1.266,-0.566 1.266,-1.266 0,-0.695 -0.562,-1.264 -1.266,-1.264 -0.697,0 -1.263,0.564 -1.263,1.264 0,0.7 0.566,1.266 1.263,1.266 z"
     id="path3096" /></svg>